<svg width="711" height="724" viewBox="0 0 711 724" fill="none" xmlns="http://www.w3.org/2000/svg">
<rect x="0.000244141" y="1.52588e-05" width="498" height="724" fill="#FAFCFF"/>
<path d="M486.8 674.228L486.813 674.223L486.825 674.218C528.225 656.279 566.109 630.117 600.477 595.749C624.552 571.674 644.934 544.341 661.624 513.755L661.63 513.744L661.635 513.733C677.887 482.721 689.6 450.598 696.773 417.368L696.775 417.357L696.777 417.346C703.496 383.775 704.856 351.229 700.843 319.715C700.726 318.796 699.943 318.112 699.02 318.115L555.109 318.653C554.017 318.657 553.181 319.607 553.295 320.679C556.832 353.935 553.979 384.561 544.769 412.581L544.765 412.595C535.951 440.276 520.722 464.947 499.051 486.618C480.343 505.326 459.707 519.519 437.144 529.217C415.001 538.489 392.207 543.276 368.752 543.584C345.278 543.032 322.423 538.433 300.179 529.782C277.953 520.281 257.607 506.307 239.139 487.839C220.229 468.929 206.037 448.358 196.537 426.127C187.029 403.878 182.223 381.245 182.103 358.219C181.983 335.183 186.345 312.811 195.194 291.092L195.198 291.083L195.202 291.074C204.041 268.515 217.372 248.32 235.21 230.482C257.735 207.956 283.479 192.087 312.451 182.848L312.464 182.844C341.759 173.215 374.311 170.58 410.148 174.984C411.229 175.117 412.201 174.279 412.205 173.173L412.722 25.3926C412.725 24.4775 412.052 23.6989 411.143 23.5725C379.185 19.1278 346.411 20.7031 312.831 28.2849C279.163 35.0254 246.607 46.739 215.165 63.4198C183.71 80.1072 155.514 100.919 130.58 125.852C96.6352 159.797 70.9015 197.688 53.3967 239.524C35.8955 280.479 26.6066 322.784 25.5368 366.428L25.5366 366.436L25.5365 366.443C24.8964 409.668 32.6815 451.854 48.8845 492.992L48.8886 493.002C65.0991 533.305 89.9346 570.175 123.369 603.609C156.373 636.613 193.24 661.445 233.968 678.086L233.981 678.091L233.994 678.096C274.7 693.866 316.667 701.433 359.886 700.793C403.106 700.153 445.414 691.295 486.8 674.228Z" stroke="#0057FF" stroke-width="3"/>
<path d="M681.828 175.828C718.047 139.608 718.047 80.8843 681.828 44.6647C645.608 8.4451 586.884 8.44511 550.665 44.6648C514.445 80.8844 514.445 139.608 550.665 175.828C586.884 212.047 645.608 212.047 681.828 175.828Z" stroke="#0057FF" stroke-width="3"/>
</svg>
