<svg width="64" height="64" viewBox="0 0 64 64" fill="none" xmlns="http://www.w3.org/2000/svg">
<path fill-rule="evenodd" clip-rule="evenodd" d="M4.0989 32.6176C4.03444 32.4195 4.00073 32.2108 4.00073 31.9986C4.00073 31.4682 4.21145 30.9595 4.58652 30.5844C4.96159 30.2094 5.4703 29.9986 6.00073 29.9986L53.1727 29.9986L53.1715 29.9974L6.00034 29.9974C5.46991 29.9974 4.9612 30.2082 4.58613 30.5832C4.21106 30.9583 4.00034 31.467 4.00034 31.9974C4.00034 32.21 4.03419 32.4191 4.0989 32.6176ZM40.0957 16.6159C40.0317 16.4183 39.9982 16.2102 39.9982 15.9986C39.9982 15.4675 40.2092 14.9582 40.5847 14.5826C40.9603 14.2071 41.4696 13.9961 42.0007 13.9961C42.5318 13.9961 43.0412 14.2071 43.4167 14.5826L59.4167 30.5826C59.603 30.7684 59.7508 30.9891 59.8516 31.2321C59.8716 31.2803 59.8897 31.3292 59.9058 31.3787C59.8896 31.3288 59.8714 31.2795 59.8512 31.2309C59.7504 30.9879 59.6026 30.7672 59.4163 30.5814L43.4163 14.5814C43.0408 14.2059 42.5314 13.9949 42.0003 13.9949C41.4692 13.9949 40.9599 14.2059 40.5843 14.5814C40.2088 14.957 39.9978 15.4663 39.9978 15.9974C39.9978 16.2094 40.0314 16.418 40.0957 16.6159ZM51.122 36.0471L53.1711 33.9986H53.1727L51.1238 36.0469L40.5847 46.5826C40.2092 46.9582 39.9982 47.4675 39.9982 47.9986C39.9982 48.2111 40.032 48.42 40.0965 48.6183C40.0317 48.4197 39.9978 48.2103 39.9978 47.9974C39.9978 47.4663 40.2088 46.957 40.5843 46.5814L51.122 36.0471ZM38.8876 44.8841L47.3769 36.3974H6.00034C4.83338 36.3974 3.71423 35.9339 2.88907 35.1087C2.06391 34.2836 1.60034 33.1644 1.60034 31.9974C1.60034 30.8305 2.06391 29.7113 2.88907 28.8862C3.71424 28.061 4.83339 27.5975 6.00034 27.5975L47.3769 27.5975L38.8876 19.1108C38.0619 18.2851 37.5978 17.1651 37.5978 15.9974C37.5978 14.8298 38.0616 13.71 38.8873 12.8844C39.7129 12.0588 40.8327 11.5949 42.0003 11.5949C43.168 11.5949 44.2878 12.0588 45.1134 12.8844L61.1113 28.8822C61.52 29.2905 61.8465 29.7775 62.0679 30.3111C62.2897 30.8456 62.4039 31.4187 62.4039 31.9974C62.4039 32.5762 62.2897 33.1493 62.0679 33.6838C61.8465 34.2174 61.52 34.7044 61.1113 35.1126L45.1134 51.1105C44.2878 51.9361 43.168 52.4 42.0003 52.4C40.8327 52.4 39.7129 51.9361 38.8873 51.1105C38.0616 50.2849 37.5978 49.1651 37.5978 47.9974C37.5978 46.8298 38.0619 45.7098 38.8876 44.8841Z" fill="#02D49A"/>
</svg>
