<svg width="145" height="40" viewBox="0 0 145 40" fill="none" xmlns="http://www.w3.org/2000/svg">
<path d="M129.853 18.8313C129.67 18.8313 129.522 18.6829 129.522 18.4999V0.693474C129.522 0.51044 129.67 0.362061 129.853 0.362061H143.755C143.938 0.362061 144.086 0.510439 144.086 0.693473V3.96195C144.086 4.14499 143.938 4.29337 143.755 4.29337H134.391C134.208 4.29337 134.06 4.44174 134.06 4.62478V7.28641C134.06 7.46945 134.208 7.61782 134.391 7.61782H140.351C140.534 7.61782 140.682 7.7662 140.682 7.94924V11.0858C140.682 11.2688 140.534 11.4172 140.351 11.4172H134.391C134.208 11.4172 134.06 11.5656 134.06 11.7486V14.5686C134.06 14.7516 134.208 14.9 134.391 14.9H143.86C144.043 14.9 144.192 15.0484 144.192 15.2314V18.4999C144.192 18.6829 144.043 18.8313 143.86 18.8313H129.853Z" fill="#FAFCFF"/>
<path d="M109.566 18.8905C109.2 18.8905 108.903 18.5938 108.903 18.2277V0.662825C108.903 0.296757 109.2 0 109.566 0H118.554C119.848 0 120.998 0.26087 122.004 0.782608C123.011 1.28636 123.793 1.997 124.35 2.91454C124.925 3.81408 125.212 4.84857 125.212 6.01798C125.212 7.20538 124.889 8.26685 124.242 9.20238C123.728 9.94493 123.085 10.5458 122.311 11.005C121.98 11.2011 121.837 11.621 122.022 11.9584L125.27 17.9101C125.511 18.3518 125.192 18.8905 124.688 18.8905H121.033C120.785 18.8905 120.558 18.7523 120.444 18.5321L117.257 12.3674C117.143 12.1472 116.916 12.009 116.668 12.009H114.203C113.837 12.009 113.54 12.3057 113.54 12.6718V18.2277C113.54 18.5938 113.243 18.8905 112.877 18.8905H109.566ZM113.54 7.56804C113.54 7.93411 113.837 8.23087 114.203 8.23087H118.123C118.841 8.23087 119.417 8.03297 119.848 7.63717C120.297 7.24136 120.522 6.72862 120.522 6.09894C120.522 5.46925 120.297 4.95651 119.848 4.56071C119.417 4.16491 118.841 3.96701 118.123 3.96701H114.203C113.837 3.96701 113.54 4.26376 113.54 4.62983V7.56804Z" fill="#FAFCFF"/>
<path d="M45.5516 18.9404C45.3686 18.9404 45.2202 18.792 45.2202 18.609V0.802605C45.2202 0.619571 45.3686 0.471191 45.5516 0.471191H54.9561C56.1698 0.471191 57.2428 0.735037 58.1751 1.26273C59.1249 1.77283 59.8725 2.47642 60.4177 3.3735C60.963 4.27057 61.2357 5.29957 61.2357 6.46049C61.2357 7.56865 60.963 8.57126 60.4177 9.46834C59.8725 10.3478 59.1249 11.0426 58.1751 11.5527C57.2252 12.0628 56.1522 12.3179 54.9561 12.3179H49.7584V18.609C49.7584 18.792 49.61 18.9404 49.427 18.9404H45.5516ZM49.7584 8.23985C49.7584 8.42289 49.9067 8.57126 50.0898 8.57126H54.4284C55.0969 8.57126 55.6333 8.37778 56.0379 7.9908C56.4425 7.60383 56.6448 7.10252 56.6448 6.48688C56.6448 5.85365 56.4425 5.34355 56.0379 4.95657C55.6333 4.55201 55.0969 4.34973 54.4284 4.34973H50.0898C49.9067 4.34973 49.7584 4.49811 49.7584 4.68114V8.23985Z" fill="#FAFCFF"/>
<path d="M71.2648 18.9404C71.0818 18.9404 70.9334 18.792 70.9334 18.609V4.48165H65.2228C65.0397 4.48165 64.8914 4.33327 64.8914 4.15024V0.802604C64.8914 0.61957 65.0397 0.471191 65.2228 0.471191H81.1822C81.3653 0.471191 81.5137 0.61957 81.5137 0.802604V4.15024C81.5137 4.33327 81.3653 4.48165 81.1822 4.48165H75.4716V18.609C75.4716 18.792 75.3232 18.9404 75.1402 18.9404H71.2648Z" fill="#FAFCFF"/>
<path d="M94.9469 19.2043C93.2407 19.2043 91.7544 18.8701 90.4879 18.2016C89.2391 17.5156 88.2716 16.5482 87.5856 15.2993C86.8996 14.0505 86.5566 12.5817 86.5566 10.8931V0.802604C86.5566 0.61957 86.705 0.471191 86.8881 0.471191H90.7634C90.9464 0.471191 91.0948 0.61957 91.0948 0.802604V10.8931C91.0948 11.7198 91.2531 12.4498 91.5697 13.083C91.8863 13.6987 92.3349 14.1736 92.9153 14.5078C93.5134 14.842 94.1994 15.0091 94.9733 15.0091C95.7649 15.0091 96.4421 14.842 97.0049 14.5078C97.5854 14.1736 98.0339 13.6987 98.3506 13.083C98.6672 12.4498 98.8255 11.7198 98.8255 10.8931V0.802604C98.8255 0.61957 98.9739 0.471191 99.1569 0.471191H103.032C103.215 0.471191 103.364 0.61957 103.364 0.802604V10.8931C103.364 12.5641 103.012 14.0241 102.308 15.273C101.622 16.5218 100.646 17.4893 99.3796 18.1753C98.1307 18.8613 96.6531 19.2043 94.9469 19.2043Z" fill="#FAFCFF"/>
<path fill-rule="evenodd" clip-rule="evenodd" d="M21.1884 18.4833C21.099 18.7013 21.2594 18.9404 21.4951 18.9404H25.4962C25.6334 18.9404 25.7563 18.856 25.8056 18.728L27.3572 14.6939C27.4064 14.5659 27.5293 14.4814 27.6665 14.4814H34.6419L36.2494 18.7264C36.2982 18.8552 36.4216 18.9404 36.5593 18.9404H40.7466C40.9815 18.9404 41.1419 18.7026 41.0538 18.4848L33.8549 0.678386C33.8043 0.553162 33.6827 0.471191 33.5477 0.471191H28.7957C28.6612 0.471191 28.5401 0.552455 28.4891 0.676881L26.3066 6.00006C26.9828 7.03894 27.3757 8.27917 27.3757 9.61116C27.3757 12.7831 25.1477 15.4346 22.1713 16.0861L21.1884 18.4833ZM29.2931 10.8667C29.0606 10.8667 28.9004 10.6336 28.9837 10.4165L30.7669 5.77193C30.8762 5.48724 31.2795 5.48881 31.3866 5.77435L33.1283 10.4189C33.2096 10.6356 33.0494 10.8667 32.818 10.8667H29.2931Z" fill="#FAFCFF"/>
<path d="M17.6634 36.406V27.787H21.5789C22.0878 27.787 22.5475 27.902 22.9579 28.1318C23.3684 28.3616 23.6926 28.6777 23.9306 29.0799C24.1687 29.4739 24.2877 29.9213 24.2877 30.422C24.2877 30.9145 24.1646 31.3578 23.9183 31.7518C23.6803 32.1458 23.3519 32.4577 22.9333 32.6875C22.5147 32.9174 22.0509 33.0323 21.542 33.0323H18.6238V36.406H17.6634ZM23.5366 36.406L21.0741 32.6137L22.0222 32.3058L24.7063 36.406H23.5366ZM18.6238 32.0965H21.542C21.8867 32.0965 22.1863 32.0267 22.4408 31.8872C22.7035 31.7394 22.9087 31.5383 23.0564 31.2839C23.2042 31.0294 23.2781 30.7421 23.2781 30.422C23.2781 30.1018 23.196 29.8145 23.0318 29.5601C22.8758 29.2974 22.6542 29.0922 22.3669 28.9444C22.0878 28.7967 21.7636 28.7228 21.3942 28.7228H18.6238V32.0965ZM28.5742 36.406V27.787H34.4844V28.7228H29.5346V35.4702H34.4597V36.406H28.5742ZM29.0544 32.4413V31.5055H33.7948V32.4413H29.0544ZM37.6691 36.406L41.3261 27.787H42.4588L46.0911 36.406H45.0322L42.545 30.5205C42.4711 30.3235 42.3973 30.1347 42.3234 29.9541C42.2577 29.7653 42.1879 29.5847 42.1141 29.4123C42.0484 29.2317 41.9827 29.0512 41.9171 28.8706C41.8514 28.69 41.7857 28.5094 41.7201 28.3288H41.9909C41.9171 28.5422 41.8473 28.7433 41.7816 28.9321C41.716 29.1127 41.6462 29.2892 41.5723 29.4616C41.5066 29.634 41.4369 29.8104 41.363 29.991C41.2891 30.1716 41.2111 30.3686 41.129 30.582L38.6542 36.406H37.6691ZM39.1959 34.0789L39.5776 33.1431H44.1211L44.4412 34.0789H39.1959ZM49.6623 36.406V27.787H50.6227V35.4702H55.4493V36.406H49.6623ZM64.9668 36.406V27.787H70.8769V28.7228H65.9272V35.4702H70.8523V36.406H64.9668ZM65.447 32.4413V31.5055H70.1874V32.4413H65.447ZM77.9895 36.5291C77.4888 36.5291 77.0209 36.4676 76.5858 36.3444C76.159 36.2213 75.765 36.0366 75.4038 35.7904C75.0426 35.5441 74.7184 35.2404 74.4311 34.8792L75.0713 34.1158C75.5064 34.6576 75.962 35.0475 76.4381 35.2855C76.9224 35.5154 77.4559 35.6303 78.0387 35.6303C78.4738 35.6303 78.8719 35.5687 79.2331 35.4456C79.5942 35.3225 79.8774 35.1419 80.0827 34.9038C80.2961 34.6658 80.4028 34.3908 80.4028 34.0789C80.4028 33.8655 80.3535 33.6849 80.255 33.5371C80.1565 33.3812 80.0211 33.2498 79.8487 33.1431C79.6845 33.0364 79.4916 32.9461 79.27 32.8722C79.0484 32.7901 78.8185 32.7245 78.5805 32.6752C78.3424 32.6178 78.1003 32.5644 77.854 32.5152C77.4026 32.4249 76.9921 32.3182 76.6228 32.195C76.2534 32.0719 75.9332 31.9159 75.6624 31.7271C75.3997 31.5383 75.1986 31.3126 75.059 31.0499C74.9195 30.7873 74.8497 30.4671 74.8497 30.0895C74.8497 29.7366 74.9277 29.4123 75.0837 29.1168C75.2478 28.8213 75.4736 28.571 75.7609 28.3657C76.0482 28.1523 76.3847 27.9881 76.7705 27.8732C77.1563 27.7583 77.5708 27.7008 78.0141 27.7008C78.5066 27.7008 78.9499 27.7624 79.3439 27.8855C79.7379 28.0005 80.0868 28.1728 80.3905 28.4027C80.6942 28.6243 80.9569 28.8993 81.1785 29.2276L80.5259 29.9172C80.3207 29.6381 80.0909 29.4 79.8364 29.203C79.5819 28.9978 79.2987 28.8459 78.9868 28.7474C78.6831 28.6407 78.3548 28.5874 78.0018 28.5874C77.5914 28.5874 77.222 28.6489 76.8936 28.7721C76.5735 28.8952 76.319 29.0676 76.1302 29.2892C75.9414 29.5026 75.847 29.753 75.847 30.0403C75.847 30.2701 75.9004 30.4712 76.0071 30.6436C76.1138 30.8078 76.2698 30.9473 76.475 31.0622C76.6802 31.1772 76.9347 31.2798 77.2384 31.3701C77.5503 31.4521 77.8951 31.526 78.2727 31.5917C78.6995 31.6738 79.1017 31.7723 79.4793 31.8872C79.8569 32.0021 80.1894 32.1458 80.4767 32.3182C80.7722 32.4905 80.9979 32.7122 81.1539 32.983C81.318 33.2457 81.4001 33.5658 81.4001 33.9434C81.4001 34.4524 81.2565 34.9038 80.9692 35.2979C80.6901 35.6837 80.2961 35.9874 79.7871 36.209C79.2782 36.4224 78.679 36.5291 77.9895 36.5291ZM87.1554 36.406V28.7228H84.3481V27.787H91.0216V28.7228H88.1158V36.406H87.1554ZM92.9734 36.406L96.6303 27.787H97.7631L101.395 36.406H100.336L97.8493 30.5205C97.7754 30.3235 97.7015 30.1347 97.6276 29.9541C97.562 29.7653 97.4922 29.5847 97.4183 29.4123C97.3527 29.2317 97.287 29.0512 97.2213 28.8706C97.1557 28.69 97.09 28.5094 97.0243 28.3288H97.2952C97.2213 28.5422 97.1516 28.7433 97.0859 28.9321C97.0202 29.1127 96.9504 29.2892 96.8766 29.4616C96.8109 29.634 96.7411 29.8104 96.6672 29.991C96.5934 30.1716 96.5154 30.3686 96.4333 30.582L93.9584 36.406H92.9734ZM94.5002 34.0789L94.8819 33.1431H99.4253L99.7455 34.0789H94.5002ZM106.163 36.406V28.7228H103.356V27.787H110.03V28.7228H107.124V36.406H106.163ZM113.629 36.406V27.787H119.539V28.7228H114.589V35.4702H119.514V36.406H113.629ZM114.109 32.4413V31.5055H118.849V32.4413H114.109Z" fill="#FAFCFF"/>
<ellipse cx="20.7475" cy="9.61077" rx="2.6513" ry="2.6513" fill="#0057FF"/>
<path d="M10.4519 19.2219C9.04468 19.2219 7.73425 18.982 6.52056 18.5021C5.32445 18.0044 4.27786 17.3202 3.38079 16.4493C2.48371 15.5784 1.78012 14.5653 1.27002 13.41C0.777506 12.237 0.53125 10.9751 0.53125 9.62429C0.53125 8.25574 0.777506 6.99383 1.27002 5.83856C1.78012 4.66552 2.48371 3.64355 3.38079 2.77265C4.29545 1.90175 5.35084 1.22636 6.54694 0.746482C7.76063 0.248827 9.06227 0 10.4519 0C11.4721 0 12.4747 0.151074 13.4597 0.453222C14.4447 0.755369 15.3506 1.18193 16.1773 1.73291C16.9346 2.21114 17.5787 2.77516 18.1095 3.42497C18.2144 3.55328 18.2004 3.73946 18.0829 3.85621L15.4927 6.4283C15.3517 6.56836 15.1203 6.55313 14.9913 6.40195C14.4014 5.71101 13.7502 5.18552 13.0376 4.82548C12.246 4.41669 11.3841 4.21229 10.4519 4.21229C9.71309 4.21229 9.0183 4.35448 8.36748 4.63886C7.73425 4.90546 7.18017 5.2787 6.70525 5.75858C6.23032 6.23846 5.86094 6.80721 5.59709 7.46483C5.33325 8.12244 5.20133 8.84226 5.20133 9.62429C5.20133 10.3885 5.33325 11.0995 5.59709 11.7571C5.87853 12.3969 6.25671 12.9657 6.73163 13.4633C7.22414 13.9432 7.79581 14.3165 8.44663 14.5831C9.11504 14.8497 9.83622 14.983 10.6102 14.983C11.5072 14.983 12.334 14.7875 13.0903 14.3964C13.7665 14.0549 14.3822 13.5708 14.9375 12.9444C15.0679 12.7973 15.2961 12.784 15.4356 12.9225L17.9484 15.4166C18.0671 15.5344 18.08 15.7226 17.9731 15.8511C17.4448 16.4859 16.811 17.0497 16.0718 17.5423C15.2451 18.0755 14.348 18.4932 13.3806 18.7954C12.4131 19.0797 11.4369 19.2219 10.4519 19.2219Z" fill="#FAFCFF"/>
</svg>
