<svg width="154" height="21" viewBox="0 0 154 21" fill="none" xmlns="http://www.w3.org/2000/svg">
<path d="M138.606 20.1869C138.423 20.1869 138.274 20.0386 138.274 19.8555V0.719841C138.274 0.536807 138.423 0.388428 138.606 0.388428H153.555C153.738 0.388428 153.887 0.536806 153.887 0.71984V4.27127C153.887 4.45431 153.738 4.60268 153.555 4.60268H143.47C143.287 4.60268 143.139 4.75106 143.139 4.9341V7.835C143.139 8.01804 143.287 8.16642 143.47 8.16642H149.907C150.09 8.16642 150.238 8.3148 150.238 8.49783V11.9078C150.238 12.0909 150.09 12.2393 149.907 12.2393H143.47C143.287 12.2393 143.139 12.3876 143.139 12.5707V15.6413C143.139 15.8243 143.287 15.9727 143.47 15.9727H153.669C153.852 15.9727 154 16.1211 154 16.3041V19.8555C154 20.0386 153.852 20.1869 153.669 20.1869H138.606Z" fill="#FAFCFF"/>
<path d="M116.835 20.2501C116.469 20.2501 116.172 19.9534 116.172 19.5873V0.662825C116.172 0.296757 116.469 0 116.835 0H126.517C127.904 0 129.137 0.279645 130.216 0.838936C131.295 1.37894 132.133 2.14073 132.73 3.12431C133.347 4.0886 133.655 5.19753 133.655 6.45112C133.655 7.72398 133.308 8.86184 132.615 9.86471C132.054 10.6748 131.35 11.3275 130.5 11.823C130.168 12.0167 130.026 12.4368 130.21 12.7741L133.755 19.2697C133.997 19.7114 133.677 20.2501 133.174 20.2501H129.146C128.898 20.2501 128.671 20.1119 128.557 19.8918L125.113 13.2317C124.999 13.0115 124.772 12.8733 124.524 12.8733H121.805C121.439 12.8733 121.142 13.1701 121.142 13.5361V19.5873C121.142 19.9534 120.846 20.2501 120.48 20.2501H116.835ZM121.142 8.16045C121.142 8.52652 121.439 8.82327 121.805 8.82327H126.055C126.825 8.82327 127.442 8.61113 127.904 8.18684C128.386 7.76255 128.627 7.21291 128.627 6.5379C128.627 5.8629 128.386 5.31325 127.904 4.88896C127.442 4.46467 126.825 4.25253 126.055 4.25253H121.805C121.439 4.25253 121.142 4.54928 121.142 4.91535V8.16045Z" fill="#FAFCFF"/>
<path d="M48.2367 20.3036C48.0537 20.3036 47.9053 20.1553 47.9053 19.9722V0.83654C47.9053 0.653506 48.0537 0.505127 48.2367 0.505127H58.342C59.643 0.505127 60.7932 0.787963 61.7926 1.35364C62.8108 1.90045 63.6122 2.65468 64.1967 3.61632C64.7812 4.57796 65.0735 5.68102 65.0735 6.9255C65.0735 8.11341 64.7812 9.18819 64.1967 10.1498C63.6122 11.0926 62.8108 11.8374 61.7926 12.3842C60.7744 12.9311 59.6242 13.2045 58.342 13.2045H52.7701V19.9722C52.7701 20.1553 52.6217 20.3036 52.4387 20.3036H48.2367ZM52.7701 8.85678C52.7701 9.03981 52.9185 9.18819 53.1015 9.18819H57.7763C58.4928 9.18819 59.0679 8.98078 59.5016 8.56595C59.9353 8.15112 60.1521 7.61374 60.1521 6.95379C60.1521 6.27498 59.9353 5.72816 59.5016 5.31334C59.0679 4.87966 58.4928 4.66282 57.7763 4.66282H53.1015C52.9185 4.66282 52.7701 4.81119 52.7701 4.99423V8.85678Z" fill="#FAFCFF"/>
<path d="M75.8006 20.3036C75.6176 20.3036 75.4692 20.1553 75.4692 19.9722V4.80423H69.3237C69.1407 4.80423 68.9923 4.65586 68.9923 4.47282V0.83654C68.9923 0.653506 69.1407 0.505127 69.3237 0.505127H86.4795C86.6626 0.505127 86.8109 0.653505 86.8109 0.83654V4.47282C86.8109 4.65585 86.6626 4.80423 86.4795 4.80423H80.334V19.9722C80.334 20.1553 80.1856 20.3036 80.0026 20.3036H75.8006Z" fill="#FAFCFF"/>
<path d="M101.211 20.5865C99.3822 20.5865 97.7889 20.2282 96.4313 19.5117C95.0925 18.7763 94.0554 17.7393 93.3201 16.4005C92.5847 15.0618 92.217 13.4873 92.217 11.6771V0.836539C92.217 0.653505 92.3654 0.505127 92.5484 0.505127H96.7504C96.9334 0.505127 97.0818 0.653505 97.0818 0.83654V11.6771C97.0818 12.5634 97.2515 13.3459 97.5909 14.0247C97.9303 14.6846 98.4111 15.1937 99.0334 15.552C99.6745 15.9103 100.41 16.0894 101.239 16.0894C102.088 16.0894 102.814 15.9103 103.417 15.552C104.04 15.1937 104.52 14.6846 104.86 14.0247C105.199 13.3459 105.369 12.5634 105.369 11.6771V0.836539C105.369 0.653505 105.517 0.505127 105.7 0.505127H109.902C110.085 0.505127 110.234 0.653505 110.234 0.83654V11.6771C110.234 13.4684 109.857 15.0335 109.102 16.3722C108.367 17.711 107.32 18.748 105.963 19.4834C104.624 20.2188 103.04 20.5865 101.211 20.5865Z" fill="#FAFCFF"/>
<path fill-rule="evenodd" clip-rule="evenodd" d="M22.1305 19.8468C22.0411 20.0648 22.2015 20.3039 22.4372 20.3039H26.7782C26.9154 20.3039 27.0383 20.2194 27.0876 20.0914L28.7626 15.7364C28.8118 15.6084 28.9348 15.524 29.0719 15.524H36.5657L38.2948 20.0898C38.3436 20.2187 38.467 20.3039 38.6047 20.3039H43.1452C43.3801 20.3039 43.5405 20.0661 43.4524 19.8483L35.7161 0.712566C35.6655 0.587342 35.5439 0.505371 35.4089 0.505371H30.2828C30.1483 0.505371 30.0272 0.586636 29.9762 0.711062L27.6306 6.43203C28.3555 7.5457 28.7766 8.87519 28.7766 10.3031C28.7766 13.7033 26.3883 16.5456 23.1976 17.244L22.1305 19.8468ZM30.7973 11.6491C30.5648 11.6491 30.4046 11.416 30.4879 11.1989L32.4344 6.12894C32.5437 5.84425 32.947 5.84582 33.0541 6.13136L34.9553 11.2013C35.0366 11.418 34.8764 11.6491 34.645 11.6491H30.7973Z" fill="#FAFCFF"/>
<ellipse cx="21.6713" cy="10.3023" rx="2.84213" ry="2.84212" fill="#074DB7"/>
<path d="M10.6346 20.6054C9.12618 20.6054 7.72142 20.3482 6.42038 19.8338C5.13819 19.3003 4.01627 18.5668 3.05463 17.6332C2.09299 16.6996 1.33876 15.6136 0.791941 14.3752C0.26398 13.1177 0 11.765 0 10.317C0 8.84994 0.26398 7.4972 0.791941 6.25878C1.33876 5.00131 2.09299 3.90578 3.05463 2.97221C4.03513 2.03863 5.16647 1.31463 6.44866 0.800209C7.74971 0.266736 9.14503 0 10.6346 0C11.7283 0 12.803 0.161947 13.859 0.485842C14.9149 0.809735 15.886 1.267 16.7722 1.85763C17.5902 2.37424 18.285 2.98423 18.8566 3.68761C18.9611 3.8162 18.9472 4.00234 18.8297 4.11909L16.0192 6.90993C15.8782 7.04999 15.6468 7.03476 15.5182 6.88319C14.8813 6.13242 14.1774 5.56229 13.4064 5.17278C12.5579 4.73457 11.634 4.51547 10.6346 4.51547C9.84269 4.51547 9.09789 4.66789 8.40023 4.97273C7.72142 5.25852 7.12747 5.65863 6.61836 6.17305C6.10926 6.68747 5.71329 7.29715 5.43045 8.0021C5.14762 8.70704 5.0062 9.47867 5.0062 10.317C5.0062 11.1363 5.14762 11.8984 5.43045 12.6033C5.73214 13.2892 6.13754 13.8989 6.64665 14.4324C7.17461 14.9468 7.78742 15.3469 8.48508 15.6327C9.2016 15.9185 9.97468 16.0614 10.8043 16.0614C11.766 16.0614 12.6522 15.8518 13.463 15.4326C14.1949 15.0628 14.8608 14.5374 15.4606 13.8562C15.5905 13.7087 15.8188 13.6955 15.9583 13.834L18.6857 16.5411C18.8044 16.6588 18.8173 16.847 18.7106 16.9758C18.1416 17.6629 17.4578 18.2726 16.659 18.8049C15.7728 19.3765 14.8112 19.8242 13.7741 20.1481C12.7371 20.453 11.6906 20.6054 10.6346 20.6054Z" fill="#FAFCFF"/>
</svg>
