<svg width="244" height="240" viewBox="0 0 244 240" fill="none" xmlns="http://www.w3.org/2000/svg">
<rect x="243.646" y="240" width="165.083" height="240" transform="rotate(-180 243.646 240)" fill="#0057FF"/>
<rect width="78.5635" height="240" transform="matrix(1 1.74846e-07 1.74846e-07 -1 0 240)" fill="#0D0E0F"/>
<path d="M161.752 224.428L161.765 224.423L161.777 224.418C175.625 218.417 188.287 209.67 199.762 198.195C207.812 190.145 214.626 181.007 220.203 170.786L220.209 170.775L220.215 170.764C225.643 160.406 229.557 149.672 231.954 138.566L231.957 138.555L231.959 138.544C234.206 127.317 234.663 116.419 233.318 105.856L231.83 106.046L233.318 105.856C233.215 105.049 232.527 104.447 231.715 104.45L184.01 104.628C183.049 104.632 182.315 105.467 182.415 106.409C183.575 117.31 182.637 127.317 179.634 136.454L179.629 136.468C176.759 145.483 171.799 153.524 164.722 160.601C158.604 166.719 151.869 171.348 144.516 174.509C137.3 177.53 129.878 179.088 122.243 179.191C114.592 179.009 107.142 177.51 99.8859 174.69C92.6506 171.595 86.016 167.04 79.9816 161.006C73.7942 154.818 69.1664 148.104 66.0724 140.864C62.9705 133.605 61.4072 126.234 61.3683 118.742C61.3293 111.239 62.7491 103.953 65.6338 96.8732L65.6376 96.8639L65.6413 96.8545C68.519 89.5104 72.8595 82.9315 78.679 77.112C86.0383 69.7527 94.4353 64.5797 103.879 61.5682L103.879 61.5683L103.892 61.5641C113.441 58.4252 124.081 57.5563 135.838 59.0013C136.787 59.1179 137.642 58.3825 137.645 57.409L137.817 8.42109C137.819 7.61667 137.228 6.93212 136.429 6.82101C125.711 5.33043 114.729 5.85976 103.492 8.39551C92.2368 10.6501 81.3569 14.5661 70.8552 20.1375C60.3412 25.7154 50.9135 32.6736 42.577 41.0101C31.2389 52.3482 22.6329 65.0155 16.777 79.0094C10.9274 92.6993 7.82049 106.847 7.46268 121.443L7.4625 121.451L7.46239 121.458C7.24824 135.92 9.85378 150.035 15.2717 163.79L15.2757 163.8C20.7042 177.297 29.0165 189.63 40.1866 200.8C51.2156 211.829 63.5473 220.138 77.1792 225.708L77.1919 225.714L77.2047 225.718C90.8172 230.992 104.857 233.524 119.314 233.31C133.772 233.096 147.921 230.132 161.752 224.428Z" stroke="#FAFCFF" stroke-width="3"/>
<path d="M226.729 58.9944C239.127 46.5963 239.127 26.495 226.729 14.0969C214.331 1.69881 194.23 1.69882 181.832 14.0969C169.434 26.495 169.433 46.5963 181.832 58.9944C194.23 71.3925 214.331 71.3925 226.729 58.9944Z" stroke="#FAFCFF" stroke-width="3"/>
</svg>
