<svg width="711" height="724" viewBox="0 0 711 724" fill="none" xmlns="http://www.w3.org/2000/svg">
<rect x="711" y="724" width="498" height="724" transform="rotate(-180 711 724)" fill="#0057FF"/>
<path d="M462.8 674.228L462.813 674.223L462.825 674.218C504.225 656.28 542.109 630.117 576.477 595.749C600.552 571.674 620.934 544.341 637.624 513.755L637.63 513.744L637.635 513.733C653.887 482.721 665.6 450.598 672.773 417.368L672.775 417.357L672.777 417.346C679.496 383.775 680.856 351.229 676.843 319.715C676.726 318.796 675.943 318.112 675.02 318.115L531.109 318.653C530.017 318.657 529.181 319.607 529.295 320.679C532.832 353.935 529.979 384.561 520.769 412.581L520.765 412.595C511.951 440.276 496.722 464.948 475.051 486.618C456.343 505.326 435.707 519.519 413.144 529.217C391.001 538.489 368.207 543.276 344.752 543.584C321.278 543.032 298.423 538.433 276.179 529.782C253.953 520.281 233.607 506.307 215.139 487.839C196.229 468.929 182.037 448.358 172.537 426.127C163.029 403.878 158.223 381.245 158.103 358.219C157.983 335.184 162.345 312.812 171.194 291.093L171.198 291.083L171.202 291.074C180.041 268.516 193.372 248.32 211.21 230.482C233.735 207.956 259.479 192.087 288.451 182.849L288.464 182.844C317.759 173.215 350.311 170.58 386.148 174.984C387.229 175.117 388.201 174.279 388.205 173.173L388.722 25.3927C388.725 24.4776 388.052 23.699 387.143 23.5726C355.185 19.1279 322.411 20.7032 288.831 28.285C255.163 35.0255 222.607 46.7391 191.165 63.4199C159.71 80.1073 131.514 100.919 106.58 125.852C72.6352 159.797 46.9015 197.688 29.3967 239.524C11.8955 280.479 2.60665 322.784 1.53676 366.428L1.53658 366.436L1.53647 366.443C0.896407 409.668 8.68154 451.854 24.8845 492.992L24.8886 493.002C41.0991 533.306 65.9346 570.175 99.369 603.609C132.373 636.613 169.24 661.445 209.968 678.086L209.981 678.092L209.994 678.096C250.7 693.866 292.667 701.433 335.886 700.793C379.106 700.153 421.414 691.295 462.8 674.228Z" stroke="#FAFCFF" stroke-width="3"/>
<path d="M657.828 175.828C694.047 139.608 694.047 80.8845 657.828 44.6648C621.608 8.44521 562.884 8.44522 526.665 44.6649C490.445 80.8845 490.445 139.608 526.665 175.828C562.884 212.047 621.608 212.047 657.828 175.828Z" stroke="#FAFCFF" stroke-width="3"/>
</svg>
