<svg width="905" height="905" viewBox="0 0 905 905" fill="none" xmlns="http://www.w3.org/2000/svg">
<path fill-rule="evenodd" clip-rule="evenodd" d="M610.863 869.543L610.831 869.556C556.064 892.131 500.058 903.849 442.834 904.685C385.612 905.52 330.042 895.489 276.151 874.603L276.117 874.589L276.083 874.576C222.139 852.525 173.321 819.632 129.638 775.949C85.3899 731.701 52.4885 682.879 31.0031 629.483L30.9977 629.47L30.9924 629.456C9.53273 574.996 -0.788926 519.134 0.0469683 461.898L0.0472516 461.878L0.0477232 461.859C1.45236 404.079 13.739 348.077 36.8904 293.876C60.0566 238.492 94.1136 188.346 139.014 143.446C172.011 110.448 209.329 82.9082 250.955 60.8308C292.548 38.7708 335.629 23.2753 380.19 14.3603C424.688 4.32461 468.15 2.24722 510.548 8.16416C512.696 8.46385 514.288 10.3041 514.281 12.4681L513.637 207.441C513.629 210.061 511.329 212.041 508.774 211.726C461.742 205.922 419.108 209.372 380.798 221.958L380.781 221.963L380.764 221.969C342.906 234.033 309.259 254.765 279.796 284.228C256.481 307.543 239.076 333.922 227.538 363.379L227.528 363.404L227.518 363.429C215.96 391.809 210.27 421.029 210.432 451.118C210.595 481.182 216.875 510.745 229.311 539.835C241.726 568.876 260.281 595.78 285.044 620.543C309.211 644.71 335.808 662.976 364.835 675.395C393.917 686.705 423.785 692.721 454.459 693.452C485.089 693.051 514.857 686.806 543.787 674.697C573.265 662.032 600.244 643.485 624.725 619.004C653.063 590.666 672.949 558.431 684.454 522.277L684.46 522.259L684.466 522.242C696.507 485.59 700.239 445.481 695.576 401.855C695.305 399.322 697.279 397.071 699.867 397.062L889.739 396.392C891.922 396.384 893.773 398.003 894.051 400.174C899.392 441.971 897.6 485.116 888.707 529.588L888.701 529.618L888.695 529.647C879.212 573.624 863.719 616.128 842.227 657.151L842.212 657.181L842.196 657.211C820.118 697.682 793.148 733.856 761.286 765.718C715.835 811.168 665.705 845.789 610.896 869.529L610.863 869.543ZM545.35 678.38C515.928 690.696 485.624 697.054 454.438 697.453C423.245 696.718 392.873 690.599 363.324 679.099C333.768 666.463 306.732 647.888 282.215 623.371C257.129 598.285 238.268 570.964 225.633 541.408C212.998 511.852 206.598 481.763 206.432 451.14C206.267 420.517 212.061 390.777 223.814 361.92C235.56 331.929 253.278 305.088 276.967 281.399C306.861 251.506 341.055 230.425 379.549 218.158C417.513 205.685 459.542 202.075 505.638 207.325C505.638 207.325 505.638 207.325 505.639 207.325C505.905 207.356 506.171 207.386 506.437 207.417C507.378 207.526 508.32 207.639 509.264 207.756C509.461 207.78 509.637 207.627 509.637 207.428L509.647 204.654L509.649 203.774V203.773L510.281 12.4549C510.281 12.2893 510.159 12.1487 509.995 12.1258C468.091 6.27775 425.1 8.32686 381.022 18.2731C336.838 27.1077 294.108 42.4715 252.83 64.3645C211.552 86.2575 174.556 113.561 141.842 146.274C97.2841 190.832 63.5282 240.552 40.5745 295.434C17.6147 349.182 5.4387 404.689 4.04654 461.956C3.21844 518.659 13.4409 574.003 34.7139 627.99C55.9808 680.842 88.5649 729.219 132.466 773.12C175.798 816.452 224.174 849.036 277.597 870.873C331.013 891.576 386.073 901.513 442.775 900.685C499.478 899.857 554.988 888.248 609.306 865.858C663.618 842.334 713.335 808.011 758.457 762.889C790.043 731.304 816.785 695.439 838.684 655.295C860.013 614.581 875.38 572.418 884.785 528.804C893.599 484.723 895.365 442.015 890.083 400.681C890.062 400.515 889.921 400.391 889.753 400.392L703.535 401.049L703.103 401.051L699.882 401.062C699.685 401.063 699.532 401.235 699.553 401.43C699.672 402.546 699.786 403.659 699.895 404.77C699.904 404.868 699.914 404.965 699.923 405.062L699.896 405.062C699.905 405.062 699.914 405.062 699.923 405.062C704.055 447.781 700.169 487.257 688.266 523.49C676.556 560.286 656.319 593.067 627.553 621.833C602.736 646.65 575.335 665.499 545.35 678.38ZM867.808 36.9235C916.453 85.5689 916.677 164.265 868.245 212.696C819.814 261.127 741.118 260.904 692.473 212.259C643.827 163.614 643.604 84.9174 692.035 36.4862C740.467 -11.945 819.163 -11.7218 867.808 36.9235ZM865.417 209.868C912.272 163.012 912.077 86.8489 864.98 39.752C817.883 -7.34496 741.719 -7.54075 694.864 39.3147C648.008 86.1701 648.204 162.334 695.301 209.43C742.398 256.527 818.562 256.723 865.417 209.868Z" fill="#FAFCFF"/>
</svg>
